HIERARCHY
ROOT Hips
{
  OFFSET 0.000000 0.000000 0.000000
  CHANNELS 6 Xposition Yposition Zposition Xrotation Yrotation Zrotation
  JOINT Spine
  {
    OFFSET 1.388230 22.849755 -8.157144
    CHANNELS 3 Xrotation Yrotation Zrotation
    JOINT Chest
    {
      OFFSET 1.388230 22.849755 -8.157144
      CHANNELS 3 Xrotation Yrotation Zrotation
      JOINT Neck
      {
        OFFSET 0.386562 8.498444 -3.690407
        CHANNELS 3 Xrotation Yrotation Zrotation
        JOINT Head
        {
          OFFSET 0.662911 7.396516 -7.447500
          CHANNELS 3 Xrotation Yrotation Zrotation
          End Site
          {
            OFFSET 0.198873 2.218955 -2.234250
          }
        }
      }
      JOINT LeftShoulder
      {
        OFFSET 17.248308 -1.208605 -0.261267
        CHANNELS 3 Xrotation Yrotation Zrotation
        JOINT LeftArm
        {
          OFFSET 7.635523 -21.435821 1.774202
          CHANNELS 3 Xrotation Yrotation Zrotation
          JOINT LeftForeArm
          {
            OFFSET 7.643843 -21.327462 -9.147581
            CHANNELS 3 Xrotation Yrotation Zrotation
            JOINT LeftHand
            {
              OFFSET 0.473402 -5.275506 -2.178749
              CHANNELS 3 Xrotation Yrotation Zrotation
              End Site
              {
                OFFSET 0.142021 -1.582652 -0.653625
              }
            }
          }
        }
      }
      JOINT RightShoulder
      {
        OFFSET -17.248308 1.208605 0.261267
        CHANNELS 3 Xrotation Yrotation Zrotation
        JOINT RightArm
        {
          OFFSET -12.133127 -21.363330 5.693170
          CHANNELS 3 Xrotation Yrotation Zrotation
          JOINT RightForeArm
          {
            OFFSET -7.740244 -22.047532 -5.230031
            CHANNELS 3 Xrotation Yrotation Zrotation
            JOINT RightHand
            {
              OFFSET -0.480044 -5.557554 -1.525311
              CHANNELS 3 Xrotation Yrotation Zrotation
              End Site
              {
                OFFSET -0.144013 -1.667266 -0.457593
              }
            }
          }
        }
      }
    }
  }
  JOINT LeftUpLeg
  {
    OFFSET 11.699587 -0.675443 -0.599665
    CHANNELS 3 Xrotation Yrotation Zrotation
    JOINT LeftLeg
    {
      OFFSET -6.527727 -38.483662 1.737457
      CHANNELS 3 Xrotation Yrotation Zrotation
      JOINT LeftFoot
      {
        OFFSET 3.065902 -35.809878 12.679608
        CHANNELS 3 Xrotation Yrotation Zrotation
        End Site
        {
          OFFSET 0.919771 -10.742963 3.803882
        }
      }
    }
  }
  JOINT RightUpLeg
  {
    OFFSET -11.699587 0.675443 0.599665
    CHANNELS 3 Xrotation Yrotation Zrotation
    JOINT RightLeg
    {
      OFFSET -1.173808 -37.981520 -1.210152
      CHANNELS 3 Xrotation Yrotation Zrotation
      JOINT RightFoot
      {
        OFFSET -7.846448 -39.021816 7.691272
        CHANNELS 3 Xrotation Yrotation Zrotation
        End Site
        {
          OFFSET -2.353934 -11.706545 2.307382
        }
      }
    }
  }
}
MOTION
Frames: 17
Frame Time: 0.083333
-3.569313 60.000000 -11.555628 -0.829474 -0.343116 -1.073928 -0.829474 -0.343116 -1.073928 0.000000 0.000000 0.000000 -4.032813 8.806489 7.760186 5.000000 0.000000 0.000000 6.165846 2.642407 21.899379 0.735350 0.676189 -1.380204 -98.289027 13.385677 33.821473 0.000000 0.000000 0.000000 13.872593 -12.581044 -56.727975 26.687413 0.722595 -5.606929 -106.647515 -7.819722 -17.857962 0.000000 0.000000 0.000000 -4.682510 1.087297 3.290030 4.698743 -0.843114 -4.021141 0.000000 0.000000 0.000000 6.412248 0.633883 -9.371452 3.574330 -0.316026 2.405926 0.000000 0.000000 0.000000
-3.336961 60.000000 -10.516918 2.082391 -0.439021 -0.932379 2.082391 -0.439021 -0.932379 0.000000 0.000000 0.000000 -2.065556 8.758479 8.157129 5.000000 0.000000 0.000000 3.844617 2.272122 21.440631 -1.550374 0.345351 -1.086647 -97.997202 13.424512 34.048706 0.000000 0.000000 0.000000 19.628490 -12.486444 -54.885972 27.549133 -0.683695 -2.561566 -99.677982 -9.294498 -22.061018 0.000000 0.000000 0.000000 -4.919660 1.216479 4.244919 3.942722 -0.528517 -2.726229 0.000000 0.000000 0.000000 3.248213 0.437583 -8.801976 5.265150 -0.729877 2.159793 0.000000 0.000000 0.000000
-3.174440 60.000000 -9.686736 4.360154 -0.551519 -0.923440 4.360154 -0.551519 -0.923440 0.000000 0.000000 0.000000 -2.505848 8.827659 8.122605 5.000000 0.000000 0.000000 2.404672 1.963205 20.134802 -2.357295 0.176879 -0.829868 -97.365373 13.506730 34.542456 0.000000 0.000000 0.000000 18.686159 -11.979723 -49.263572 19.852388 -1.174231 -0.651111 -84.376698 -10.005380 -27.567598 0.000000 0.000000 0.000000 -3.784200 1.055615 5.180276 3.970674 -0.091654 -1.357583 0.000000 0.000000 0.000000 1.199383 0.319233 -8.382995 5.719523 -0.769147 2.505995 0.000000 0.000000 0.000000
-2.996210 60.000000 -8.809339 6.185287 -0.624136 -0.858439 6.185287 -0.624136 -0.858439 0.000000 0.000000 0.000000 -2.820811 8.526716 7.773694 5.000000 0.000000 0.000000 0.110810 1.388912 17.393226 -5.144065 -0.161058 -0.534590 -96.420240 13.503614 35.075655 0.000000 0.000000 0.000000 11.632121 -10.095644 -36.994846 11.302730 -0.614340 -0.728107 -77.896019 -7.100889 -24.716575 0.000000 0.000000 0.000000 -2.880273 0.924376 5.847426 4.734932 0.207684 -0.658445 0.000000 0.000000 0.000000 2.147757 0.371060 -8.509542 3.924814 -0.241006 3.220647 0.000000 0.000000 0.000000
-2.814467 60.000000 -8.096789 6.395601 -0.565738 -0.626774 6.395601 -0.565738 -0.626774 0.000000 0.000000 0.000000 -3.871270 8.000640 7.055852 5.000000 0.000000 0.000000 -0.257730 1.015779 13.491407 -5.483635 -0.284588 -0.273157 -95.562333 13.383456 35.365841 0.000000 0.000000 0.000000 5.577338 -6.726697 -20.631818 3.815643 0.262718 -2.109656 -72.949025 -4.830986 -21.937008 0.000000 0.000000 0.000000 -5.416319 1.603873 6.948728 7.417314 0.281795 -1.305234 0.000000 0.000000 0.000000 1.446745 0.351121 -8.382796 2.120097 0.295106 3.979387 0.000000 0.000000 0.000000
-2.685215 60.000000 -7.476388 5.830029 -0.460168 -0.372935 5.830029 -0.460168 -0.372935 0.000000 0.000000 0.000000 -4.858767 7.673179 6.552317 5.000000 0.000000 0.000000 -0.389022 0.821139 11.432194 -5.558208 -0.289517 -0.272763 -94.809773 13.156389 35.410526 0.000000 0.000000 0.000000 2.729141 -4.143071 -11.881576 0.761754 0.763481 -3.480379 -70.889235 -4.723123 -22.422962 0.000000 0.000000 0.000000 -6.879033 1.979644 7.223079 8.754310 0.283883 -1.780294 0.000000 0.000000 0.000000 -2.550316 0.151097 -7.320740 4.530770 -0.332226 3.670629 0.000000 0.000000 0.000000
-2.739759 60.000000 -7.035746 4.211622 -0.372194 -0.363594 4.211622 -0.372194 -0.363594 0.000000 0.000000 0.000000 -6.628740 7.545283 6.089663 5.000000 0.000000 0.000000 -0.898422 0.702189 11.380349 -5.112474 -0.200278 -0.421965 -94.417835 12.938207 35.247085 0.000000 0.000000 0.000000 1.167346 -2.679744 -8.653670 1.762768 0.830750 -3.916563 -70.943420 -3.752629 -19.968097 0.000000 0.000000 0.000000 -4.220334 1.239934 6.200351 5.711197 0.348231 -0.456807 0.000000 0.000000 0.000000 -2.350158 0.148383 -6.956673 4.310217 -0.194221 4.225590 0.000000 0.000000 0.000000
-2.963527 60.000000 -6.617613 0.551953 -0.318249 -0.788584 0.551953 -0.318249 -0.788584 0.000000 0.000000 0.000000 -10.636527 7.563239 5.345682 5.000000 0.000000 0.000000 -2.992245 0.426521 13.473588 -4.329683 0.014569 -0.821652 -93.490376 12.194286 34.430597 0.000000 0.000000 0.000000 -0.962874 -0.551252 -4.078860 2.484877 0.907479 -4.394858 -70.861163 -3.845436 -20.231283 0.000000 0.000000 0.000000 -4.520620 1.398641 7.133640 8.501331 0.520729 -0.753186 0.000000 0.000000 0.000000 2.003785 0.265840 -6.733537 4.541094 -0.088946 5.235216 0.000000 0.000000 0.000000
-3.100779 60.000000 -5.753372 -3.396129 -0.363956 -1.454089 -3.396129 -0.363956 -1.454089 0.000000 0.000000 0.000000 -12.842749 6.508956 4.092092 5.000000 0.000000 0.000000 -5.753025 0.364524 18.351858 -3.495120 0.345878 -1.426899 -91.681096 11.279200 33.784527 0.000000 0.000000 0.000000 -1.007024 -0.000183 -2.081122 -2.145854 1.123426 -4.795484 -70.757298 -3.795989 -20.142461 0.000000 0.000000 0.000000 -5.807043 1.815110 8.347806 11.642542 0.662861 -1.260373 0.000000 0.000000 0.000000 5.262376 0.331955 -6.383416 4.028512 0.096667 5.582202 0.000000 0.000000 0.000000
-2.993356 60.000000 -4.301647 -4.389964 -0.788682 -2.628183 -4.389964 -0.788682 -2.628183 0.000000 0.000000 0.000000 -12.237345 3.598150 1.905080 5.000000 0.000000 0.000000 -4.804356 1.539473 27.017776 0.306134 1.169137 -2.496790 -90.968542 11.402990 34.355631 0.000000 0.000000 0.000000 0.247401 -0.658878 -1.987075 -2.130459 1.139956 -4.886386 -71.421081 -4.330729 -21.220871 0.000000 0.000000 0.000000 -5.441388 1.739327 8.439755 10.416611 0.826542 -0.253364 0.000000 0.000000 0.000000 7.470655 0.371082 -6.187813 1.474199 0.746118 5.627699 0.000000 0.000000 0.000000
-2.742599 60.000000 -1.894065 -5.259086 -1.388465 -4.184548 -5.259086 -1.388465 -4.184548 0.000000 0.000000 0.000000 -13.409664 0.533429 -0.631230 5.000000 0.000000 0.000000 -2.796962 2.502319 36.098848 2.149209 2.029038 -3.788986 -94.952365 13.710985 36.081651 0.000000 0.000000 0.000000 0.536950 -0.837172 -2.072408 -0.630898 1.042425 -4.582467 -73.312856 -5.783107 -23.937037 0.000000 0.000000 0.000000 -3.530470 1.189788 7.360559 6.171459 0.961192 1.414411 0.000000 0.000000 0.000000 9.008979 0.419288 -6.285644 -1.328170 1.390356 5.337219 0.000000 0.000000 0.000000
-2.599815 60.000000 0.547329 -5.587606 -1.865585 -5.358746 -5.587606 -1.865585 -5.358746 0.000000 0.000000 0.000000 -15.042090 -1.343151 -2.211667 5.000000 0.000000 0.000000 1.992199 3.287496 45.126212 4.909979 2.822625 -4.650312 -102.616766 16.632780 36.745352 0.000000 0.000000 0.000000 0.834365 -1.278005 -3.165901 0.852591 0.945020 -4.307221 -77.796160 -7.376834 -25.420033 0.000000 0.000000 0.000000 -0.954607 0.487083 5.785876 1.520811 1.012364 2.565501 0.000000 0.000000 0.000000 11.163772 0.495017 -6.506417 -5.642636 2.311724 4.664953 0.000000 0.000000 0.000000
-2.450548 60.000000 1.959072 -5.712472 -2.388370 -6.639593 -5.712472 -2.388370 -6.639593 0.000000 0.000000 0.000000 -15.224402 -2.422047 -3.048970 5.000000 0.000000 0.000000 4.541546 3.334447 51.598303 5.044319 2.838775 -4.661360 -108.757696 15.171481 31.309125 0.000000 0.000000 0.000000 0.380789 -1.720976 -5.954033 0.233946 0.866935 -3.866327 -81.487625 -10.129293 -29.239182 0.000000 0.000000 0.000000 1.887288 -0.186722 4.563744 -0.935689 0.945347 2.787793 0.000000 0.000000 0.000000 13.398878 0.498949 -6.083993 -8.938660 2.883606 3.718041 0.000000 0.000000 0.000000
-2.278582 60.000000 1.698671 -5.002632 -2.623656 -7.220923 -5.002632 -2.623656 -7.220923 0.000000 0.000000 0.000000 -14.241193 -2.986895 -3.447279 5.000000 0.000000 0.000000 10.740874 2.602489 55.318682 9.612903 2.912140 -3.845893 -110.624477 11.562507 25.539233 0.000000 0.000000 0.000000 1.041997 -2.865761 -9.575114 -0.810448 0.789672 -3.347058 -86.042343 -12.382668 -31.102481 0.000000 0.000000 0.000000 5.931964 -1.016612 4.180355 0.316356 0.826998 2.247075 0.000000 0.000000 0.000000 12.851502 0.386630 -5.218775 -10.402000 3.068298 3.175597 0.000000 0.000000 0.000000
-2.203215 60.000000 1.171288 -4.581006 -2.508551 -6.944069 -4.581006 -2.508551 -6.944069 0.000000 0.000000 0.000000 -12.591845 -3.256415 -3.610222 5.000000 0.000000 0.000000 19.025948 1.377630 56.143742 17.953453 2.918586 -2.302790 -112.028777 8.299749 20.566768 0.000000 0.000000 0.000000 3.396652 -4.845176 -14.142760 -0.901218 0.586685 -2.369960 -91.641593 -13.941048 -30.982318 0.000000 0.000000 0.000000 9.404479 -1.717800 3.080861 -1.510100 0.761651 2.395649 0.000000 0.000000 0.000000 9.503893 0.071064 -3.068713 -12.493298 3.092723 1.598391 0.000000 0.000000 0.000000
-2.410349 60.000000 0.427288 -4.291845 -2.158990 -6.071944 -4.291845 -2.158990 -6.071944 0.000000 0.000000 0.000000 -9.279079 -3.342240 -3.606031 5.000000 0.000000 0.000000 19.513819 1.290924 56.395177 21.512363 1.753756 -0.015791 -111.348416 7.496145 19.702822 0.000000 0.000000 0.000000 5.915947 -6.787193 -20.046385 -1.077726 0.355584 -1.284622 -97.470948 -14.433826 -29.101144 0.000000 0.000000 0.000000 11.696511 -2.196470 3.491894 -0.593917 0.327396 1.076859 0.000000 0.000000 0.000000 8.277973 -0.141327 -1.107509 -11.595759 2.495157 0.342420 0.000000 0.000000 0.000000
-2.842812 60.000000 -0.367926 -4.154148 -1.500974 -4.408449 -4.154148 -1.500974 -4.408449 0.000000 0.000000 0.000000 -6.976991 -3.914752 -4.038670 5.000000 0.000000 0.000000 15.683467 1.831708 57.587328 19.516138 -0.277898 3.015150 -100.555585 7.890940 20.234540 0.000000 0.000000 0.000000 10.714731 -9.031748 -24.595097 -0.257892 0.011532 -0.021154 -99.771169 -13.542712 -26.917033 0.000000 0.000000 0.000000 14.128178 -2.729970 3.986408 -2.089958 -0.185908 -0.022618 0.000000 0.000000 0.000000 8.130337 -0.261411 0.113809 -11.000047 2.056446 -0.691134 0.000000 0.000000 0.000000
